<svg width="532" height="360" viewBox="0 0 532 360" fill="none" xmlns="http://www.w3.org/2000/svg">
<mask id="mask0_5_144" style="mask-type:alpha" maskUnits="userSpaceOnUse" x="0" y="0" width="532" height="360">
<mask id="path-1-inside-1_5_144" fill="white">
<path d="M0 0H60V60H0V0Z"/>
</mask>
<path d="M59 0V60H61V0H59Z" fill="#ADADAD" mask="url(#path-1-inside-1_5_144)"/>
<mask id="path-3-inside-2_5_144" fill="white">
<path d="M59 0H119V60H59V0Z"/>
</mask>
<path d="M118 0V60H120V0H118ZM60 60V0H58V60H60Z" fill="#ADADAD" mask="url(#path-3-inside-2_5_144)"/>
<mask id="path-5-inside-3_5_144" fill="white">
<path d="M118 0H178V60H118V0Z"/>
</mask>
<path d="M177 0V60H179V0H177ZM119 60V0H117V60H119Z" fill="#ADADAD" mask="url(#path-5-inside-3_5_144)"/>
<mask id="path-7-inside-4_5_144" fill="white">
<path d="M177 0H237V60H177V0Z"/>
</mask>
<path d="M236 0V60H238V0H236ZM178 60V0H176V60H178Z" fill="#ADADAD" mask="url(#path-7-inside-4_5_144)"/>
<mask id="path-9-inside-5_5_144" fill="white">
<path d="M236 0H296V60H236V0Z"/>
</mask>
<path d="M295 0V60H297V0H295ZM237 60V0H235V60H237Z" fill="#ADADAD" mask="url(#path-9-inside-5_5_144)"/>
<mask id="path-11-inside-6_5_144" fill="white">
<path d="M295 0H355V60H295V0Z"/>
</mask>
<path d="M354 0V60H356V0H354ZM296 60V0H294V60H296Z" fill="#ADADAD" mask="url(#path-11-inside-6_5_144)"/>
<mask id="path-13-inside-7_5_144" fill="white">
<path d="M354 0H414V60H354V0Z"/>
</mask>
<path d="M413 0V60H415V0H413ZM355 60V0H353V60H355Z" fill="#ADADAD" mask="url(#path-13-inside-7_5_144)"/>
<mask id="path-15-inside-8_5_144" fill="white">
<path d="M413 0H473V60H413V0Z"/>
</mask>
<path d="M472 0V60H474V0H472ZM414 60V0H412V60H414Z" fill="#ADADAD" mask="url(#path-15-inside-8_5_144)"/>
<mask id="path-17-inside-9_5_144" fill="white">
<path d="M472 0H532V60H472V0Z"/>
</mask>
<path d="M473 60V0H471V60H473Z" fill="#ADADAD" mask="url(#path-17-inside-9_5_144)"/>
<mask id="path-19-inside-10_5_144" fill="white">
<path d="M0 60H60V120H0V60Z"/>
</mask>
<path d="M60 60H61V59H60V60ZM0 61H60V59H0V61ZM59 60V120H61V60H59Z" fill="#ADADAD" mask="url(#path-19-inside-10_5_144)"/>
<mask id="path-21-inside-11_5_144" fill="white">
<path d="M59 60H119V120H59V60Z"/>
</mask>
<path d="M59 60V59H58V60H59ZM119 60H120V59H119V60ZM59 61H119V59H59V61ZM118 60V120H120V60H118ZM60 120V60H58V120H60Z" fill="#ADADAD" mask="url(#path-21-inside-11_5_144)"/>
<mask id="path-23-inside-12_5_144" fill="white">
<path d="M118 60H178V120H118V60Z"/>
</mask>
<path d="M118 60V59H117V60H118ZM178 60H179V59H178V60ZM118 61H178V59H118V61ZM177 60V120H179V60H177ZM119 120V60H117V120H119Z" fill="#ADADAD" mask="url(#path-23-inside-12_5_144)"/>
<mask id="path-25-inside-13_5_144" fill="white">
<path d="M177 60H237V120H177V60Z"/>
</mask>
<path d="M177 60V59H176V60H177ZM237 60H238V59H237V60ZM177 61H237V59H177V61ZM236 60V120H238V60H236ZM178 120V60H176V120H178Z" fill="#ADADAD" mask="url(#path-25-inside-13_5_144)"/>
<mask id="path-27-inside-14_5_144" fill="white">
<path d="M236 60H296V120H236V60Z"/>
</mask>
<path d="M236 60V59H235V60H236ZM296 60H297V59H296V60ZM236 61H296V59H236V61ZM295 60V120H297V60H295ZM237 120V60H235V120H237Z" fill="#ADADAD" mask="url(#path-27-inside-14_5_144)"/>
<mask id="path-29-inside-15_5_144" fill="white">
<path d="M295 60H355V120H295V60Z"/>
</mask>
<path d="M295 60V59H294V60H295ZM355 60H356V59H355V60ZM295 61H355V59H295V61ZM354 60V120H356V60H354ZM296 120V60H294V120H296Z" fill="#ADADAD" mask="url(#path-29-inside-15_5_144)"/>
<mask id="path-31-inside-16_5_144" fill="white">
<path d="M354 60H414V120H354V60Z"/>
</mask>
<path d="M354 60V59H353V60H354ZM414 60H415V59H414V60ZM354 61H414V59H354V61ZM413 60V120H415V60H413ZM355 120V60H353V120H355Z" fill="#ADADAD" mask="url(#path-31-inside-16_5_144)"/>
<mask id="path-33-inside-17_5_144" fill="white">
<path d="M413 60H473V120H413V60Z"/>
</mask>
<path d="M413 60V59H412V60H413ZM473 60H474V59H473V60ZM413 61H473V59H413V61ZM472 60V120H474V60H472ZM414 120V60H412V120H414Z" fill="#ADADAD" mask="url(#path-33-inside-17_5_144)"/>
<mask id="path-35-inside-18_5_144" fill="white">
<path d="M472 60H532V120H472V60Z"/>
</mask>
<path d="M472 60V59H471V60H472ZM472 61H532V59H472V61ZM473 120V60H471V120H473Z" fill="#ADADAD" mask="url(#path-35-inside-18_5_144)"/>
<mask id="path-37-inside-19_5_144" fill="white">
<path d="M0 120H60V180H0V120Z"/>
</mask>
<path d="M60 120H61V119H60V120ZM0 121H60V119H0V121ZM59 120V180H61V120H59Z" fill="#ADADAD" mask="url(#path-37-inside-19_5_144)"/>
<mask id="path-39-inside-20_5_144" fill="white">
<path d="M59 120H119V180H59V120Z"/>
</mask>
<path d="M59 120V119H58V120H59ZM119 120H120V119H119V120ZM59 121H119V119H59V121ZM118 120V180H120V120H118ZM60 180V120H58V180H60Z" fill="#ADADAD" mask="url(#path-39-inside-20_5_144)"/>
<mask id="path-41-inside-21_5_144" fill="white">
<path d="M118 120H178V180H118V120Z"/>
</mask>
<path d="M118 120V119H117V120H118ZM178 120H179V119H178V120ZM118 121H178V119H118V121ZM177 120V180H179V120H177ZM119 180V120H117V180H119Z" fill="#ADADAD" mask="url(#path-41-inside-21_5_144)"/>
<mask id="path-43-inside-22_5_144" fill="white">
<path d="M177 120H237V180H177V120Z"/>
</mask>
<path d="M177 120V119H176V120H177ZM237 120H238V119H237V120ZM177 121H237V119H177V121ZM236 120V180H238V120H236ZM178 180V120H176V180H178Z" fill="#ADADAD" mask="url(#path-43-inside-22_5_144)"/>
<mask id="path-45-inside-23_5_144" fill="white">
<path d="M236 120H296V180H236V120Z"/>
</mask>
<path d="M236 120V119H235V120H236ZM296 120H297V119H296V120ZM236 121H296V119H236V121ZM295 120V180H297V120H295ZM237 180V120H235V180H237Z" fill="#ADADAD" mask="url(#path-45-inside-23_5_144)"/>
<mask id="path-47-inside-24_5_144" fill="white">
<path d="M295 120H355V180H295V120Z"/>
</mask>
<path d="M295 120V119H294V120H295ZM355 120H356V119H355V120ZM295 121H355V119H295V121ZM354 120V180H356V120H354ZM296 180V120H294V180H296Z" fill="#ADADAD" mask="url(#path-47-inside-24_5_144)"/>
<mask id="path-49-inside-25_5_144" fill="white">
<path d="M354 120H414V180H354V120Z"/>
</mask>
<path d="M354 120V119H353V120H354ZM414 120H415V119H414V120ZM354 121H414V119H354V121ZM413 120V180H415V120H413ZM355 180V120H353V180H355Z" fill="#ADADAD" mask="url(#path-49-inside-25_5_144)"/>
<mask id="path-51-inside-26_5_144" fill="white">
<path d="M413 120H473V180H413V120Z"/>
</mask>
<path d="M413 120V119H412V120H413ZM473 120H474V119H473V120ZM413 121H473V119H413V121ZM472 120V180H474V120H472ZM414 180V120H412V180H414Z" fill="#ADADAD" mask="url(#path-51-inside-26_5_144)"/>
<mask id="path-53-inside-27_5_144" fill="white">
<path d="M472 120H532V180H472V120Z"/>
</mask>
<path d="M472 120V119H471V120H472ZM472 121H532V119H472V121ZM473 180V120H471V180H473Z" fill="#ADADAD" mask="url(#path-53-inside-27_5_144)"/>
<mask id="path-55-inside-28_5_144" fill="white">
<path d="M0 180H60V240H0V180Z"/>
</mask>
<path d="M60 180H61V179H60V180ZM0 181H60V179H0V181ZM59 180V240H61V180H59Z" fill="#ADADAD" mask="url(#path-55-inside-28_5_144)"/>
<mask id="path-57-inside-29_5_144" fill="white">
<path d="M59 180H119V240H59V180Z"/>
</mask>
<path d="M59 180V179H58V180H59ZM119 180H120V179H119V180ZM59 181H119V179H59V181ZM118 180V240H120V180H118ZM60 240V180H58V240H60Z" fill="#ADADAD" mask="url(#path-57-inside-29_5_144)"/>
<mask id="path-59-inside-30_5_144" fill="white">
<path d="M118 180H178V240H118V180Z"/>
</mask>
<path d="M118 180V179H117V180H118ZM178 180H179V179H178V180ZM118 181H178V179H118V181ZM177 180V240H179V180H177ZM119 240V180H117V240H119Z" fill="#ADADAD" mask="url(#path-59-inside-30_5_144)"/>
<mask id="path-61-inside-31_5_144" fill="white">
<path d="M177 180H237V240H177V180Z"/>
</mask>
<path d="M177 180V179H176V180H177ZM237 180H238V179H237V180ZM177 181H237V179H177V181ZM236 180V240H238V180H236ZM178 240V180H176V240H178Z" fill="#ADADAD" mask="url(#path-61-inside-31_5_144)"/>
<mask id="path-63-inside-32_5_144" fill="white">
<path d="M236 180H296V240H236V180Z"/>
</mask>
<path d="M236 180V179H235V180H236ZM296 180H297V179H296V180ZM236 181H296V179H236V181ZM295 180V240H297V180H295ZM237 240V180H235V240H237Z" fill="#ADADAD" mask="url(#path-63-inside-32_5_144)"/>
<mask id="path-65-inside-33_5_144" fill="white">
<path d="M295 180H355V240H295V180Z"/>
</mask>
<path d="M295 180V179H294V180H295ZM355 180H356V179H355V180ZM295 181H355V179H295V181ZM354 180V240H356V180H354ZM296 240V180H294V240H296Z" fill="#ADADAD" mask="url(#path-65-inside-33_5_144)"/>
<mask id="path-67-inside-34_5_144" fill="white">
<path d="M354 180H414V240H354V180Z"/>
</mask>
<path d="M354 180V179H353V180H354ZM414 180H415V179H414V180ZM354 181H414V179H354V181ZM413 180V240H415V180H413ZM355 240V180H353V240H355Z" fill="#ADADAD" mask="url(#path-67-inside-34_5_144)"/>
<mask id="path-69-inside-35_5_144" fill="white">
<path d="M413 180H473V240H413V180Z"/>
</mask>
<path d="M413 180V179H412V180H413ZM473 180H474V179H473V180ZM413 181H473V179H413V181ZM472 180V240H474V180H472ZM414 240V180H412V240H414Z" fill="#ADADAD" mask="url(#path-69-inside-35_5_144)"/>
<mask id="path-71-inside-36_5_144" fill="white">
<path d="M472 180H532V240H472V180Z"/>
</mask>
<path d="M472 180V179H471V180H472ZM472 181H532V179H472V181ZM473 240V180H471V240H473Z" fill="#ADADAD" mask="url(#path-71-inside-36_5_144)"/>
<mask id="path-73-inside-37_5_144" fill="white">
<path d="M0 240H60V300H0V240Z"/>
</mask>
<path d="M60 240H61V239H60V240ZM0 241H60V239H0V241ZM59 240V300H61V240H59Z" fill="#ADADAD" mask="url(#path-73-inside-37_5_144)"/>
<mask id="path-75-inside-38_5_144" fill="white">
<path d="M59 240H119V300H59V240Z"/>
</mask>
<path d="M59 240V239H58V240H59ZM119 240H120V239H119V240ZM59 241H119V239H59V241ZM118 240V300H120V240H118ZM60 300V240H58V300H60Z" fill="#ADADAD" mask="url(#path-75-inside-38_5_144)"/>
<mask id="path-77-inside-39_5_144" fill="white">
<path d="M118 240H178V300H118V240Z"/>
</mask>
<path d="M118 240V239H117V240H118ZM178 240H179V239H178V240ZM118 241H178V239H118V241ZM177 240V300H179V240H177ZM119 300V240H117V300H119Z" fill="#ADADAD" mask="url(#path-77-inside-39_5_144)"/>
<mask id="path-79-inside-40_5_144" fill="white">
<path d="M177 240H237V300H177V240Z"/>
</mask>
<path d="M177 240V239H176V240H177ZM237 240H238V239H237V240ZM177 241H237V239H177V241ZM236 240V300H238V240H236ZM178 300V240H176V300H178Z" fill="#ADADAD" mask="url(#path-79-inside-40_5_144)"/>
<mask id="path-81-inside-41_5_144" fill="white">
<path d="M236 240H296V300H236V240Z"/>
</mask>
<path d="M236 240V239H235V240H236ZM296 240H297V239H296V240ZM236 241H296V239H236V241ZM295 240V300H297V240H295ZM237 300V240H235V300H237Z" fill="#ADADAD" mask="url(#path-81-inside-41_5_144)"/>
<mask id="path-83-inside-42_5_144" fill="white">
<path d="M295 240H355V300H295V240Z"/>
</mask>
<path d="M295 240V239H294V240H295ZM355 240H356V239H355V240ZM295 241H355V239H295V241ZM354 240V300H356V240H354ZM296 300V240H294V300H296Z" fill="#ADADAD" mask="url(#path-83-inside-42_5_144)"/>
<mask id="path-85-inside-43_5_144" fill="white">
<path d="M354 240H414V300H354V240Z"/>
</mask>
<path d="M354 240V239H353V240H354ZM414 240H415V239H414V240ZM354 241H414V239H354V241ZM413 240V300H415V240H413ZM355 300V240H353V300H355Z" fill="#ADADAD" mask="url(#path-85-inside-43_5_144)"/>
<mask id="path-87-inside-44_5_144" fill="white">
<path d="M413 240H473V300H413V240Z"/>
</mask>
<path d="M413 240V239H412V240H413ZM473 240H474V239H473V240ZM413 241H473V239H413V241ZM472 240V300H474V240H472ZM414 300V240H412V300H414Z" fill="#ADADAD" mask="url(#path-87-inside-44_5_144)"/>
<mask id="path-89-inside-45_5_144" fill="white">
<path d="M472 240H532V300H472V240Z"/>
</mask>
<path d="M472 240V239H471V240H472ZM472 241H532V239H472V241ZM473 300V240H471V300H473Z" fill="#ADADAD" mask="url(#path-89-inside-45_5_144)"/>
<mask id="path-91-inside-46_5_144" fill="white">
<path d="M0 300H60V360H0V300Z"/>
</mask>
<path d="M60 300H61V299H60V300ZM0 301H60V299H0V301ZM59 300V360H61V300H59Z" fill="#ADADAD" mask="url(#path-91-inside-46_5_144)"/>
<mask id="path-93-inside-47_5_144" fill="white">
<path d="M59 300H119V360H59V300Z"/>
</mask>
<path d="M59 300V299H58V300H59ZM119 300H120V299H119V300ZM59 301H119V299H59V301ZM118 300V360H120V300H118ZM60 360V300H58V360H60Z" fill="#ADADAD" mask="url(#path-93-inside-47_5_144)"/>
<mask id="path-95-inside-48_5_144" fill="white">
<path d="M118 300H178V360H118V300Z"/>
</mask>
<path d="M118 300V299H117V300H118ZM178 300H179V299H178V300ZM118 301H178V299H118V301ZM177 300V360H179V300H177ZM119 360V300H117V360H119Z" fill="#ADADAD" mask="url(#path-95-inside-48_5_144)"/>
<mask id="path-97-inside-49_5_144" fill="white">
<path d="M177 300H237V360H177V300Z"/>
</mask>
<path d="M177 300V299H176V300H177ZM237 300H238V299H237V300ZM177 301H237V299H177V301ZM236 300V360H238V300H236ZM178 360V300H176V360H178Z" fill="#ADADAD" mask="url(#path-97-inside-49_5_144)"/>
<mask id="path-99-inside-50_5_144" fill="white">
<path d="M236 300H296V360H236V300Z"/>
</mask>
<path d="M236 300V299H235V300H236ZM296 300H297V299H296V300ZM236 301H296V299H236V301ZM295 300V360H297V300H295ZM237 360V300H235V360H237Z" fill="#ADADAD" mask="url(#path-99-inside-50_5_144)"/>
<mask id="path-101-inside-51_5_144" fill="white">
<path d="M295 300H355V360H295V300Z"/>
</mask>
<path d="M295 300V299H294V300H295ZM355 300H356V299H355V300ZM295 301H355V299H295V301ZM354 300V360H356V300H354ZM296 360V300H294V360H296Z" fill="#ADADAD" mask="url(#path-101-inside-51_5_144)"/>
<mask id="path-103-inside-52_5_144" fill="white">
<path d="M354 300H414V360H354V300Z"/>
</mask>
<path d="M354 300V299H353V300H354ZM414 300H415V299H414V300ZM354 301H414V299H354V301ZM413 300V360H415V300H413ZM355 360V300H353V360H355Z" fill="#ADADAD" mask="url(#path-103-inside-52_5_144)"/>
<mask id="path-105-inside-53_5_144" fill="white">
<path d="M413 300H473V360H413V300Z"/>
</mask>
<path d="M413 300V299H412V300H413ZM473 300H474V299H473V300ZM413 301H473V299H413V301ZM472 300V360H474V300H472ZM414 360V300H412V360H414Z" fill="#ADADAD" mask="url(#path-105-inside-53_5_144)"/>
<mask id="path-107-inside-54_5_144" fill="white">
<path d="M472 300H532V360H472V300Z"/>
</mask>
<path d="M472 300V299H471V300H472ZM472 301H532V299H472V301ZM473 360V300H471V360H473Z" fill="#ADADAD" mask="url(#path-107-inside-54_5_144)"/>
</mask>
<g mask="url(#mask0_5_144)">
<g filter="url(#filter0_f_5_144)">
<rect x="119" y="33" width="294" height="294" fill="#2B3852"/>
</g>
</g>
<defs>
<filter id="filter0_f_5_144" x="35" y="-51" width="462" height="462" filterUnits="userSpaceOnUse" color-interpolation-filters="sRGB">
<feFlood flood-opacity="0" result="BackgroundImageFix"/>
<feBlend mode="normal" in="SourceGraphic" in2="BackgroundImageFix" result="shape"/>
<feGaussianBlur stdDeviation="42" result="effect1_foregroundBlur_5_144"/>
</filter>
</defs>
</svg>
