<svg width="20" height="19" viewBox="0 0 20 19" fill="none" xmlns="http://www.w3.org/2000/svg">
<path d="M5.94447 6.33337C5.66452 6.33337 5.39604 6.44458 5.19808 6.64254C5.00013 6.84049 4.88892 7.10898 4.88892 7.38893C4.88892 7.66888 5.00013 7.93736 5.19808 8.13532C5.39604 8.33327 5.66452 8.44449 5.94447 8.44449H14.3889C14.6689 8.44449 14.9374 8.33327 15.1353 8.13532C15.3333 7.93736 15.4445 7.66888 15.4445 7.38893C15.4445 7.10898 15.3333 6.84049 15.1353 6.64254C14.9374 6.44458 14.6689 6.33337 14.3889 6.33337H5.94447Z" fill="white"/>
<path fill-rule="evenodd" clip-rule="evenodd" d="M3.83335 0C2.9935 0 2.18805 0.33363 1.59418 0.927495C1.00032 1.52136 0.666687 2.32681 0.666687 3.16667V15.8333C0.666687 16.6732 1.00032 17.4786 1.59418 18.0725C2.18805 18.6664 2.9935 19 3.83335 19H16.5C17.3399 19 18.1453 18.6664 18.7392 18.0725C19.3331 17.4786 19.6667 16.6732 19.6667 15.8333V3.16667C19.6667 2.32681 19.3331 1.52136 18.7392 0.927495C18.1453 0.33363 17.3399 0 16.5 0H3.83335ZM2.7778 15.8333V4.22222H17.5556V15.8333C17.5556 16.1133 17.4444 16.3818 17.2464 16.5797C17.0485 16.7777 16.78 16.8889 16.5 16.8889H3.83335C3.5534 16.8889 3.28492 16.7777 3.08696 16.5797C2.88901 16.3818 2.7778 16.1133 2.7778 15.8333Z" fill="white"/>
</svg>
