<svg width="21" height="11" viewBox="0 0 21 11" fill="none" xmlns="http://www.w3.org/2000/svg">
<path d="M4.3 1.57143C4.3 1.57143 5.35667 3.75572 6.65667 4.51C7.95667 5.25957 10.5 5.15429 10.5 5.15429C10.5 5.15429 8.18333 6.149 7.38333 7.37472C6.58667 8.60043 6.7 11 6.7 11C6.7 11 5.64333 8.81571 4.34333 8.06143C3.045 7.31343 0.5 7.41714 0.5 7.41714C0.5 7.41714 2.81667 6.42243 3.61667 5.19671C4.41333 3.971 4.3 1.57143 4.3 1.57143ZM17.9667 0C17.9667 0 17.2633 1.45671 16.3967 1.958C15.53 2.45929 13.8333 2.38857 13.8333 2.38857C13.8333 2.38857 15.3783 3.05171 15.91 3.86886C16.4417 4.686 16.3667 6.28571 16.3667 6.28571C16.3667 6.28571 17.07 4.829 17.9367 4.32771C18.8033 3.82643 20.5 3.89714 20.5 3.89714C20.5 3.89714 18.955 3.234 18.4233 2.41686C17.8917 1.59971 17.9667 0 17.9667 0Z" fill="#0E0F13"/>
</svg>
