<svg width="20" height="11" viewBox="0 0 20 11" fill="none" xmlns="http://www.w3.org/2000/svg">
<path d="M3.8 1.57143C3.8 1.57143 4.85667 3.75572 6.15667 4.51C7.45667 5.25957 10 5.15429 10 5.15429C10 5.15429 7.68333 6.149 6.88333 7.37472C6.08667 8.60043 6.2 11 6.2 11C6.2 11 5.14333 8.81571 3.84333 8.06143C2.545 7.31343 0 7.41714 0 7.41714C0 7.41714 2.31667 6.42243 3.11667 5.19671C3.91333 3.971 3.8 1.57143 3.8 1.57143ZM17.4667 0C17.4667 0 16.7633 1.45671 15.8967 1.958C15.03 2.45929 13.3333 2.38857 13.3333 2.38857C13.3333 2.38857 14.8783 3.05171 15.41 3.86886C15.9417 4.686 15.8667 6.28571 15.8667 6.28571C15.8667 6.28571 16.57 4.829 17.4367 4.32771C18.3033 3.82643 20 3.89714 20 3.89714C20 3.89714 18.455 3.234 17.9233 2.41686C17.3917 1.59971 17.4667 0 17.4667 0Z" fill="white"/>
</svg>
