<svg width="14" height="14" viewBox="0 0 14 14" fill="none" xmlns="http://www.w3.org/2000/svg">
<g clip-path="url(#clip0_18_20)">
<path d="M12.8334 6.46334V7C12.8326 8.25792 12.4253 9.4819 11.6721 10.4894C10.919 11.4969 9.86027 12.2339 8.65398 12.5906C7.44769 12.9473 6.15842 12.9044 4.97846 12.4685C3.7985 12.0326 2.79107 11.2269 2.10641 10.1716C1.42176 9.11636 1.09657 7.86804 1.17933 6.61285C1.2621 5.35766 1.74839 4.16286 2.56568 3.20663C3.38298 2.2504 4.48748 1.58398 5.71446 1.30675C6.94145 1.02953 8.22518 1.15637 9.37419 1.66834" stroke="#0E0F13" stroke-linecap="round" stroke-linejoin="round"/>
<path d="M12.8333 2.33334L7 8.17251L5.25 6.42251" stroke="#0E0F13" stroke-linecap="round" stroke-linejoin="round"/>
</g>
<defs>
<clipPath id="clip0_18_20">
<rect width="14" height="14" fill="white"/>
</clipPath>
</defs>
</svg>
