<svg width="24" height="24" viewBox="0 0 24 24" fill="none" xmlns="http://www.w3.org/2000/svg">
<path d="M16.9125 6.804C17.9641 7.754 18.7178 8.98853 19.0821 10.3581C19.4465 11.7276 19.406 13.1735 18.9656 14.5205C18.5251 15.8675 17.7035 17.0579 16.6003 17.9475C15.4972 18.8372 14.1597 19.3879 12.75 19.533V21.75C12.75 21.9489 12.671 22.1397 12.5303 22.2803C12.3896 22.421 12.1989 22.5 12 22.5C11.8011 22.5 11.6103 22.421 11.4696 22.2803C11.329 22.1397 11.25 21.9489 11.25 21.75V19.533C9.84022 19.3879 8.50278 18.8372 7.39961 17.9475C6.29644 17.0579 5.47487 15.8675 5.03438 14.5205C4.5939 13.1735 4.5534 11.7276 4.91779 10.3581C5.28218 8.98853 6.03583 7.754 7.08747 6.804L10.743 3.504C11.0876 3.19263 11.5355 3.02025 12 3.02025C12.4644 3.02025 12.9123 3.19263 13.257 3.504L16.9125 6.804ZM12.75 11.2515C12.75 11.0526 12.671 10.8618 12.5303 10.7212C12.3896 10.5805 12.1989 10.5015 12 10.5015C11.8011 10.5015 11.6103 10.5805 11.4696 10.7212C11.329 10.8618 11.25 11.0526 11.25 11.2515V18.0225C11.7479 18.0867 12.252 18.0867 12.75 18.0225V11.2515Z" fill="black"/>
</svg>
