<svg width="24" height="24" viewBox="0 0 24 24" fill="none" xmlns="http://www.w3.org/2000/svg">
<path d="M13.2 2.4C12.2684 2.39925 11.3495 2.61579 10.5162 3.03242C9.68296 3.44904 8.95837 4.05427 8.4 4.8C9.67587 4.7996 10.9289 5.13829 12.0309 5.7814C13.1328 6.42451 14.044 7.34893 14.6712 8.46C14.9792 8.42018 15.2894 8.40014 15.6 8.4H19.2V4.002C19.2 3.1176 18.4824 2.4 17.598 2.4H13.2ZM8.8044 17.9868C7.98424 18.0422 7.16143 17.9285 6.38704 17.6527C5.61265 17.3769 4.90319 16.9449 4.30267 16.3836C3.70215 15.8222 3.2234 15.1434 2.8961 14.3894C2.5688 13.6353 2.39994 12.822 2.4 12V7.602C2.4 6.7176 3.1176 6 4.002 6H8.4C10.5084 6 12.3624 7.0872 13.4328 8.7324C11.6886 9.2849 10.2192 10.4789 9.3216 12.0732L7.6248 10.3752C7.51214 10.2625 7.35933 10.1992 7.2 10.1992C7.04067 10.1992 6.88787 10.2625 6.7752 10.3752C6.66254 10.4879 6.59924 10.6407 6.59924 10.8C6.59924 10.9593 6.66254 11.1121 6.7752 11.2248L8.7948 13.2432C8.53267 14.0013 8.39922 14.7979 8.4 15.6C8.4 16.4364 8.5428 17.2392 8.8044 17.9868ZM9.6 15.6C9.6 14.0087 10.2321 12.4826 11.3574 11.3574C12.4826 10.2321 14.0087 9.6 15.6 9.6H19.998C20.8824 9.6 21.6 10.3176 21.6 11.202V15.6C21.6001 16.7356 21.2779 17.8478 20.671 18.8076C20.064 19.7673 19.1972 20.5351 18.1711 21.0217C17.1451 21.5083 16.0021 21.6938 14.8749 21.5565C13.7476 21.4193 12.6825 20.965 11.8032 20.2464L10.6248 21.4248C10.5121 21.5373 10.3594 21.6004 10.2002 21.6003C10.041 21.6002 9.88831 21.5369 9.7758 21.4242C9.6633 21.3115 9.60016 21.1588 9.60027 20.9996C9.60038 20.8404 9.66374 20.6877 9.7764 20.5752L10.9548 19.3968C10.0771 18.3263 9.59821 16.9843 9.6 15.6ZM12.6564 19.392L16.6248 15.4248C16.7375 15.3123 16.8008 15.1596 16.8009 15.0004C16.801 14.8412 16.7379 14.6885 16.6254 14.5758C16.5129 14.4631 16.3602 14.3998 16.201 14.3997C16.0418 14.3996 15.8891 14.4627 15.7764 14.5752L11.808 18.5436C12.054 18.8604 12.3396 19.146 12.6564 19.392Z" fill="black"/>
</svg>
